# xmcd
#
# Track frame offsets:
#	150
#	25370
#	45982
#	67947
#	81295
#	92635
#	113062
#	140360
#	157775
#	181124
#	199291
#	216811
#	234094
#
# Disc length: 3606 seconds
#
# Revision: 1
# Processed by: cddbd v1.5.2PL0 Copyright (c) Steve Scherf et al.
# Submitted via: EZCDAudioConverter 7.0.6.1
#
DISCID=9c0e140d
DTITLE=Dixie Chicks - DCX MMXVI 
DYEAR=2017
DGENRE=Country
TTITLE0=Travelin’ Soldier (acoustic)
TTITLE1=Don’t Let Me Die in Florida (acoustic)
TTITLE2=Daddy Lessons (acoustic)
TTITLE3=White Trash Wedding (acoustic)
TTITLE4=Bluegrass Instrumental: Roanoke - Single Ladies (Put a Ring on It) - S
TTITLE4=even Nation Army - Can’t Feel My Face - Wheel Hoss
TTITLE5=Ready to Run
TTITLE6=Mississippi
TTITLE7=Landslide
TTITLE8=Cowboy Take Me Away
TTITLE9=Wide Open Spaces
TTITLE10=Sin Wagon
TTITLE11=Not Ready to Make Nice
TTITLE12=Better Way
EXTD=
EXTT0=
EXTT1=
EXTT2=
EXTT3=
EXTT4=
EXTT5=
EXTT6=
EXTT7=
EXTT8=
EXTT9=
EXTT10=
EXTT11=
EXTT12=
PLAYORDER=
